{
	"asset":{
		"generator":"Khronos glTF Blender I/O v4.4.56",
		"version":"2.0"
	},
	"extensionsUsed":[
		"KHR_materials_specular",
		"KHR_materials_ior"
	],
	"scene":0,
	"scenes":[
		{
			"name":"Scene",
			"nodes":[
				8
			]
		}
	],
	"nodes":[
		{
			"name":"BARREL",
			"rotation":[
				0.628019392490387,
				-0.38946184515953064,
				-0.5061075687408447,
				0.4447091519832611
			],
			"scale":[
				1.0000001192092896,
				1.000000238418579,
				1.000000238418579
			],
			"translation":[
				0.1656685769557953,
				-1.834335207939148,
				1.8445338010787964
			]
		},
		{
			"name":"TRRIGGER",
			"rotation":[
				0.2076920121908188,
				-0.6263512969017029,
				-0.20353636145591736,
				0.7232710719108582
			],
			"scale":[
				1,
				1.0000001192092896,
				1
			],
			"translation":[
				0.12572942674160004,
				-0.985913097858429,
				1.3232393264770508
			]
		},
		{
			"name":"MAGAZINE",
			"rotation":[
				0.0003802620922215283,
				-0.0023242575116455555,
				0.007128626573830843,
				0.999971866607666
			],
			"scale":[
				1,
				1.0000001192092896,
				1
			],
			"translation":[
				0.023886656388640404,
				-0.2677604556083679,
				0.3765590190887451
			]
		},
		{
			"children":[
				0,
				1,
				2
			],
			"name":"GUN",
			"rotation":[
				-0.6280193328857422,
				0.389461874961853,
				0.5061076879501343,
				0.44470924139022827
			],
			"scale":[
				0.9999999403953552,
				1,
				0.9999999403953552
			],
			"translation":[
				-1.2199528217315674,
				-2.3033180236816406,
				0.031247489154338837
			]
		},
		{
			"mesh":0,
			"name":"GUN",
			"skin":0
		},
		{
			"mesh":1,
			"name":"GUN.001",
			"skin":0
		},
		{
			"mesh":2,
			"name":"MAGAZINE",
			"skin":0
		},
		{
			"mesh":3,
			"name":"TRIGGER",
			"skin":0
		},
		{
			"children":[
				4,
				5,
				6,
				7,
				3
			],
			"name":"GUN.002",
			"rotation":[
				-0.03743012621998787,
				0.10043057054281235,
				0.7070490717887878,
				0.6989952921867371
			],
			"translation":[
				-0.11152594536542892,
				3.420257806777954,
				-0.01765407621860504
			]
		}
	],
	"animations":[
		{
			"channels":[
				{
					"sampler":0,
					"target":{
						"node":3,
						"path":"translation"
					}
				},
				{
					"sampler":1,
					"target":{
						"node":3,
						"path":"rotation"
					}
				},
				{
					"sampler":2,
					"target":{
						"node":3,
						"path":"scale"
					}
				},
				{
					"sampler":3,
					"target":{
						"node":0,
						"path":"translation"
					}
				},
				{
					"sampler":4,
					"target":{
						"node":0,
						"path":"rotation"
					}
				},
				{
					"sampler":5,
					"target":{
						"node":0,
						"path":"scale"
					}
				},
				{
					"sampler":6,
					"target":{
						"node":1,
						"path":"translation"
					}
				},
				{
					"sampler":7,
					"target":{
						"node":1,
						"path":"rotation"
					}
				},
				{
					"sampler":8,
					"target":{
						"node":1,
						"path":"scale"
					}
				},
				{
					"sampler":9,
					"target":{
						"node":2,
						"path":"translation"
					}
				},
				{
					"sampler":10,
					"target":{
						"node":2,
						"path":"rotation"
					}
				},
				{
					"sampler":11,
					"target":{
						"node":2,
						"path":"scale"
					}
				}
			],
			"name":"RELOAD",
			"samplers":[
				{
					"input":25,
					"interpolation":"LINEAR",
					"output":26
				},
				{
					"input":25,
					"interpolation":"LINEAR",
					"output":27
				},
				{
					"input":28,
					"interpolation":"STEP",
					"output":29
				},
				{
					"input":25,
					"interpolation":"LINEAR",
					"output":30
				},
				{
					"input":28,
					"interpolation":"LINEAR",
					"output":31
				},
				{
					"input":28,
					"interpolation":"STEP",
					"output":32
				},
				{
					"input":28,
					"interpolation":"LINEAR",
					"output":33
				},
				{
					"input":28,
					"interpolation":"LINEAR",
					"output":34
				},
				{
					"input":28,
					"interpolation":"LINEAR",
					"output":35
				},
				{
					"input":25,
					"interpolation":"LINEAR",
					"output":36
				},
				{
					"input":25,
					"interpolation":"LINEAR",
					"output":37
				},
				{
					"input":28,
					"interpolation":"STEP",
					"output":38
				}
			]
		},
		{
			"channels":[
				{
					"sampler":0,
					"target":{
						"node":3,
						"path":"translation"
					}
				},
				{
					"sampler":1,
					"target":{
						"node":3,
						"path":"rotation"
					}
				},
				{
					"sampler":2,
					"target":{
						"node":3,
						"path":"scale"
					}
				},
				{
					"sampler":3,
					"target":{
						"node":0,
						"path":"translation"
					}
				},
				{
					"sampler":4,
					"target":{
						"node":0,
						"path":"rotation"
					}
				},
				{
					"sampler":5,
					"target":{
						"node":0,
						"path":"scale"
					}
				},
				{
					"sampler":6,
					"target":{
						"node":1,
						"path":"translation"
					}
				},
				{
					"sampler":7,
					"target":{
						"node":1,
						"path":"rotation"
					}
				},
				{
					"sampler":8,
					"target":{
						"node":1,
						"path":"scale"
					}
				},
				{
					"sampler":9,
					"target":{
						"node":2,
						"path":"translation"
					}
				},
				{
					"sampler":10,
					"target":{
						"node":2,
						"path":"rotation"
					}
				},
				{
					"sampler":11,
					"target":{
						"node":2,
						"path":"scale"
					}
				}
			],
			"name":"SHOOT",
			"samplers":[
				{
					"input":39,
					"interpolation":"LINEAR",
					"output":40
				},
				{
					"input":39,
					"interpolation":"LINEAR",
					"output":41
				},
				{
					"input":42,
					"interpolation":"STEP",
					"output":43
				},
				{
					"input":39,
					"interpolation":"LINEAR",
					"output":44
				},
				{
					"input":42,
					"interpolation":"STEP",
					"output":45
				},
				{
					"input":42,
					"interpolation":"STEP",
					"output":46
				},
				{
					"input":42,
					"interpolation":"STEP",
					"output":47
				},
				{
					"input":39,
					"interpolation":"LINEAR",
					"output":48
				},
				{
					"input":42,
					"interpolation":"STEP",
					"output":49
				},
				{
					"input":42,
					"interpolation":"STEP",
					"output":50
				},
				{
					"input":42,
					"interpolation":"STEP",
					"output":51
				},
				{
					"input":42,
					"interpolation":"STEP",
					"output":52
				}
			]
		}
	],
	"materials":[
		{
			"doubleSided":true,
			"extensions":{
				"KHR_materials_specular":{
					"specularFactor":0
				},
				"KHR_materials_ior":{
					"ior":1.4500000476837158
				}
			},
			"name":"GUN",
			"pbrMetallicRoughness":{
				"baseColorTexture":{
					"index":0
				},
				"metallicFactor":0,
				"roughnessFactor":0.5
			}
		}
	],
	"meshes":[
		{
			"name":"Cube",
			"primitives":[
				{
					"attributes":{
						"POSITION":0,
						"NORMAL":1,
						"TEXCOORD_0":2,
						"JOINTS_0":3,
						"WEIGHTS_0":4
					},
					"indices":5,
					"material":0
				}
			]
		},
		{
			"name":"Cube.003",
			"primitives":[
				{
					"attributes":{
						"POSITION":7,
						"NORMAL":8,
						"TEXCOORD_0":9,
						"JOINTS_0":10,
						"WEIGHTS_0":11
					},
					"indices":12,
					"material":0
				}
			]
		},
		{
			"name":"Cube.002",
			"primitives":[
				{
					"attributes":{
						"POSITION":13,
						"NORMAL":14,
						"TEXCOORD_0":15,
						"JOINTS_0":16,
						"WEIGHTS_0":17
					},
					"indices":18,
					"material":0
				}
			]
		},
		{
			"name":"Cube.001",
			"primitives":[
				{
					"attributes":{
						"POSITION":19,
						"NORMAL":20,
						"TEXCOORD_0":21,
						"JOINTS_0":22,
						"WEIGHTS_0":23
					},
					"indices":24,
					"material":0
				}
			]
		}
	],
	"textures":[
		{
			"sampler":0,
			"source":0
		}
	],
	"images":[
		{
			"mimeType":"image/png",
			"name":"gun",
			"uri":"gun.png"
		}
	],
	"skins":[
		{
			"inverseBindMatrices":6,
			"joints":[
				3,
				0,
				1,
				2
			],
			"name":"GUN.002"
		}
	],
	"accessors":[
		{
			"bufferView":0,
			"componentType":5126,
			"count":384,
			"max":[
				3.332915782928467,
				3.079899311065674,
				0.421941339969635
			],
			"min":[
				-1.6868408918380737,
				-0.01347429770976305,
				-0.4224081039428711
			],
			"type":"VEC3"
		},
		{
			"bufferView":1,
			"componentType":5126,
			"count":384,
			"type":"VEC3"
		},
		{
			"bufferView":2,
			"componentType":5126,
			"count":384,
			"type":"VEC2"
		},
		{
			"bufferView":3,
			"componentType":5121,
			"count":384,
			"type":"VEC4"
		},
		{
			"bufferView":4,
			"componentType":5126,
			"count":384,
			"type":"VEC4"
		},
		{
			"bufferView":5,
			"componentType":5123,
			"count":618,
			"type":"SCALAR"
		},
		{
			"bufferView":6,
			"componentType":5126,
			"count":4,
			"type":"MAT4"
		},
		{
			"bufferView":7,
			"componentType":5126,
			"count":283,
			"max":[
				3.247307777404785,
				3.976710796356201,
				0.48472580313682556
			],
			"min":[
				-1.7137713432312012,
				3.0768849849700928,
				-0.4053029417991638
			],
			"type":"VEC3"
		},
		{
			"bufferView":8,
			"componentType":5126,
			"count":283,
			"type":"VEC3"
		},
		{
			"bufferView":9,
			"componentType":5126,
			"count":283,
			"type":"VEC2"
		},
		{
			"bufferView":10,
			"componentType":5121,
			"count":283,
			"type":"VEC4"
		},
		{
			"bufferView":11,
			"componentType":5126,
			"count":283,
			"type":"VEC4"
		},
		{
			"bufferView":12,
			"componentType":5123,
			"count":510,
			"type":"SCALAR"
		},
		{
			"bufferView":13,
			"componentType":5126,
			"count":80,
			"max":[
				3.0202581882476807,
				3.1400811672210693,
				0.23583459854125977
			],
			"min":[
				1.0866761207580566,
				0.07630673050880432,
				-0.21573714911937714
			],
			"type":"VEC3"
		},
		{
			"bufferView":14,
			"componentType":5126,
			"count":80,
			"type":"VEC3"
		},
		{
			"bufferView":15,
			"componentType":5126,
			"count":80,
			"type":"VEC2"
		},
		{
			"bufferView":16,
			"componentType":5121,
			"count":80,
			"type":"VEC4"
		},
		{
			"bufferView":17,
			"componentType":5126,
			"count":80,
			"type":"VEC4"
		},
		{
			"bufferView":18,
			"componentType":5123,
			"count":132,
			"type":"SCALAR"
		},
		{
			"bufferView":19,
			"componentType":5126,
			"count":120,
			"max":[
				0.7661252021789551,
				2.8674938678741455,
				0.12666916847229004
			],
			"min":[
				0.21037733554840088,
				2.023841142654419,
				-0.14525754749774933
			],
			"type":"VEC3"
		},
		{
			"bufferView":20,
			"componentType":5126,
			"count":120,
			"type":"VEC3"
		},
		{
			"bufferView":21,
			"componentType":5126,
			"count":120,
			"type":"VEC2"
		},
		{
			"bufferView":22,
			"componentType":5121,
			"count":120,
			"type":"VEC4"
		},
		{
			"bufferView":23,
			"componentType":5126,
			"count":120,
			"type":"VEC4"
		},
		{
			"bufferView":24,
			"componentType":5123,
			"count":180,
			"type":"SCALAR"
		},
		{
			"bufferView":25,
			"componentType":5126,
			"count":38,
			"max":[
				1.5833333333333333
			],
			"min":[
				0.041666666666666664
			],
			"type":"SCALAR"
		},
		{
			"bufferView":26,
			"componentType":5126,
			"count":38,
			"type":"VEC3"
		},
		{
			"bufferView":27,
			"componentType":5126,
			"count":38,
			"type":"VEC4"
		},
		{
			"bufferView":28,
			"componentType":5126,
			"count":2,
			"max":[
				1.5833333333333333
			],
			"min":[
				0.041666666666666664
			],
			"type":"SCALAR"
		},
		{
			"bufferView":29,
			"componentType":5126,
			"count":2,
			"type":"VEC3"
		},
		{
			"bufferView":30,
			"componentType":5126,
			"count":38,
			"type":"VEC3"
		},
		{
			"bufferView":31,
			"componentType":5126,
			"count":2,
			"type":"VEC4"
		},
		{
			"bufferView":32,
			"componentType":5126,
			"count":2,
			"type":"VEC3"
		},
		{
			"bufferView":33,
			"componentType":5126,
			"count":2,
			"type":"VEC3"
		},
		{
			"bufferView":34,
			"componentType":5126,
			"count":2,
			"type":"VEC4"
		},
		{
			"bufferView":35,
			"componentType":5126,
			"count":2,
			"type":"VEC3"
		},
		{
			"bufferView":36,
			"componentType":5126,
			"count":38,
			"type":"VEC3"
		},
		{
			"bufferView":37,
			"componentType":5126,
			"count":38,
			"type":"VEC4"
		},
		{
			"bufferView":38,
			"componentType":5126,
			"count":2,
			"type":"VEC3"
		},
		{
			"bufferView":39,
			"componentType":5126,
			"count":14,
			"max":[
				0.5833333333333334
			],
			"min":[
				0.041666666666666664
			],
			"type":"SCALAR"
		},
		{
			"bufferView":40,
			"componentType":5126,
			"count":14,
			"type":"VEC3"
		},
		{
			"bufferView":41,
			"componentType":5126,
			"count":14,
			"type":"VEC4"
		},
		{
			"bufferView":42,
			"componentType":5126,
			"count":2,
			"max":[
				0.5833333333333334
			],
			"min":[
				0.041666666666666664
			],
			"type":"SCALAR"
		},
		{
			"bufferView":43,
			"componentType":5126,
			"count":2,
			"type":"VEC3"
		},
		{
			"bufferView":44,
			"componentType":5126,
			"count":14,
			"type":"VEC3"
		},
		{
			"bufferView":45,
			"componentType":5126,
			"count":2,
			"type":"VEC4"
		},
		{
			"bufferView":46,
			"componentType":5126,
			"count":2,
			"type":"VEC3"
		},
		{
			"bufferView":47,
			"componentType":5126,
			"count":2,
			"type":"VEC3"
		},
		{
			"bufferView":48,
			"componentType":5126,
			"count":14,
			"type":"VEC4"
		},
		{
			"bufferView":49,
			"componentType":5126,
			"count":2,
			"type":"VEC3"
		},
		{
			"bufferView":50,
			"componentType":5126,
			"count":2,
			"type":"VEC3"
		},
		{
			"bufferView":51,
			"componentType":5126,
			"count":2,
			"type":"VEC4"
		},
		{
			"bufferView":52,
			"componentType":5126,
			"count":2,
			"type":"VEC3"
		}
	],
	"bufferViews":[
		{
			"buffer":0,
			"byteLength":4608,
			"byteOffset":0,
			"target":34962
		},
		{
			"buffer":0,
			"byteLength":4608,
			"byteOffset":4608,
			"target":34962
		},
		{
			"buffer":0,
			"byteLength":3072,
			"byteOffset":9216,
			"target":34962
		},
		{
			"buffer":0,
			"byteLength":1536,
			"byteOffset":12288,
			"target":34962
		},
		{
			"buffer":0,
			"byteLength":6144,
			"byteOffset":13824,
			"target":34962
		},
		{
			"buffer":0,
			"byteLength":1236,
			"byteOffset":19968,
			"target":34963
		},
		{
			"buffer":0,
			"byteLength":256,
			"byteOffset":21204
		},
		{
			"buffer":0,
			"byteLength":3396,
			"byteOffset":21460,
			"target":34962
		},
		{
			"buffer":0,
			"byteLength":3396,
			"byteOffset":24856,
			"target":34962
		},
		{
			"buffer":0,
			"byteLength":2264,
			"byteOffset":28252,
			"target":34962
		},
		{
			"buffer":0,
			"byteLength":1132,
			"byteOffset":30516,
			"target":34962
		},
		{
			"buffer":0,
			"byteLength":4528,
			"byteOffset":31648,
			"target":34962
		},
		{
			"buffer":0,
			"byteLength":1020,
			"byteOffset":36176,
			"target":34963
		},
		{
			"buffer":0,
			"byteLength":960,
			"byteOffset":37196,
			"target":34962
		},
		{
			"buffer":0,
			"byteLength":960,
			"byteOffset":38156,
			"target":34962
		},
		{
			"buffer":0,
			"byteLength":640,
			"byteOffset":39116,
			"target":34962
		},
		{
			"buffer":0,
			"byteLength":320,
			"byteOffset":39756,
			"target":34962
		},
		{
			"buffer":0,
			"byteLength":1280,
			"byteOffset":40076,
			"target":34962
		},
		{
			"buffer":0,
			"byteLength":264,
			"byteOffset":41356,
			"target":34963
		},
		{
			"buffer":0,
			"byteLength":1440,
			"byteOffset":41620,
			"target":34962
		},
		{
			"buffer":0,
			"byteLength":1440,
			"byteOffset":43060,
			"target":34962
		},
		{
			"buffer":0,
			"byteLength":960,
			"byteOffset":44500,
			"target":34962
		},
		{
			"buffer":0,
			"byteLength":480,
			"byteOffset":45460,
			"target":34962
		},
		{
			"buffer":0,
			"byteLength":1920,
			"byteOffset":45940,
			"target":34962
		},
		{
			"buffer":0,
			"byteLength":360,
			"byteOffset":47860,
			"target":34963
		},
		{
			"buffer":0,
			"byteLength":152,
			"byteOffset":48220
		},
		{
			"buffer":0,
			"byteLength":456,
			"byteOffset":48372
		},
		{
			"buffer":0,
			"byteLength":608,
			"byteOffset":48828
		},
		{
			"buffer":0,
			"byteLength":8,
			"byteOffset":49436
		},
		{
			"buffer":0,
			"byteLength":24,
			"byteOffset":49444
		},
		{
			"buffer":0,
			"byteLength":456,
			"byteOffset":49468
		},
		{
			"buffer":0,
			"byteLength":32,
			"byteOffset":49924
		},
		{
			"buffer":0,
			"byteLength":24,
			"byteOffset":49956
		},
		{
			"buffer":0,
			"byteLength":24,
			"byteOffset":49980
		},
		{
			"buffer":0,
			"byteLength":32,
			"byteOffset":50004
		},
		{
			"buffer":0,
			"byteLength":24,
			"byteOffset":50036
		},
		{
			"buffer":0,
			"byteLength":456,
			"byteOffset":50060
		},
		{
			"buffer":0,
			"byteLength":608,
			"byteOffset":50516
		},
		{
			"buffer":0,
			"byteLength":24,
			"byteOffset":51124
		},
		{
			"buffer":0,
			"byteLength":56,
			"byteOffset":51148
		},
		{
			"buffer":0,
			"byteLength":168,
			"byteOffset":51204
		},
		{
			"buffer":0,
			"byteLength":224,
			"byteOffset":51372
		},
		{
			"buffer":0,
			"byteLength":8,
			"byteOffset":51596
		},
		{
			"buffer":0,
			"byteLength":24,
			"byteOffset":51604
		},
		{
			"buffer":0,
			"byteLength":168,
			"byteOffset":51628
		},
		{
			"buffer":0,
			"byteLength":32,
			"byteOffset":51796
		},
		{
			"buffer":0,
			"byteLength":24,
			"byteOffset":51828
		},
		{
			"buffer":0,
			"byteLength":24,
			"byteOffset":51852
		},
		{
			"buffer":0,
			"byteLength":224,
			"byteOffset":51876
		},
		{
			"buffer":0,
			"byteLength":24,
			"byteOffset":52100
		},
		{
			"buffer":0,
			"byteLength":24,
			"byteOffset":52124
		},
		{
			"buffer":0,
			"byteLength":32,
			"byteOffset":52148
		},
		{
			"buffer":0,
			"byteLength":24,
			"byteOffset":52180
		}
	],
	"samplers":[
		{
			"magFilter":9728,
			"minFilter":9984
		}
	],
	"buffers":[
		{
			"byteLength":52204,
			"uri":"GUN.bin"
		}
	]
}
