{
	"asset":{
		"generator":"Khronos glTF Blender I/O v4.4.56",
		"version":"2.0"
	},
	"extensionsUsed":[
		"KHR_materials_specular",
		"KHR_materials_ior"
	],
	"scene":0,
	"scenes":[
		{
			"name":"Scene",
			"nodes":[
				6
			]
		}
	],
	"nodes":[
		{
			"name":"handle",
			"rotation":[
				0.8081499934196472,
				-0.006075549405068159,
				0.0038863515947014093,
				0.5889326333999634
			],
			"scale":[
				1,
				1,
				1.0000001192092896
			],
			"translation":[
				0.0014732354320585728,
				1.4870176315307617,
				-0.00623342115432024
			]
		},
		{
			"name":"pin",
			"rotation":[
				0.7941384315490723,
				-0.3794500231742859,
				0.42974889278411865,
				0.20168723165988922
			],
			"scale":[
				0.9999996423721313,
				0.9999997019767761,
				1
			],
			"translation":[
				-0.02647516317665577,
				1.4184136390686035,
				-0.00993367936462164
			]
		},
		{
			"children":[
				0,
				1
			],
			"name":"BODY",
			"scale":[
				1.0000001192092896,
				1.0000001192092896,
				1.0000001192092896
			],
			"translation":[
				0,
				-2.9802322387695312e-08,
				0
			]
		},
		{
			"mesh":0,
			"name":"body",
			"skin":0
		},
		{
			"mesh":1,
			"name":"handle",
			"skin":0
		},
		{
			"mesh":2,
			"name":"pin",
			"skin":0
		},
		{
			"children":[
				3,
				4,
				5,
				2
			],
			"name":"grenade",
			"rotation":[
				0,
				0.9624674916267395,
				0,
				0.27139702439308167
			],
			"scale":[
				1.663955807685852,
				1.663955807685852,
				1.663955807685852
			],
			"translation":[
				0,
				-0.7655604481697083,
				0
			]
		}
	],
	"animations":[
		{
			"channels":[
				{
					"sampler":0,
					"target":{
						"node":2,
						"path":"translation"
					}
				},
				{
					"sampler":1,
					"target":{
						"node":2,
						"path":"rotation"
					}
				},
				{
					"sampler":2,
					"target":{
						"node":2,
						"path":"scale"
					}
				},
				{
					"sampler":3,
					"target":{
						"node":0,
						"path":"translation"
					}
				},
				{
					"sampler":4,
					"target":{
						"node":0,
						"path":"rotation"
					}
				},
				{
					"sampler":5,
					"target":{
						"node":0,
						"path":"scale"
					}
				},
				{
					"sampler":6,
					"target":{
						"node":1,
						"path":"translation"
					}
				},
				{
					"sampler":7,
					"target":{
						"node":1,
						"path":"rotation"
					}
				},
				{
					"sampler":8,
					"target":{
						"node":1,
						"path":"scale"
					}
				}
			],
			"name":"pin out",
			"samplers":[
				{
					"input":19,
					"interpolation":"LINEAR",
					"output":20
				},
				{
					"input":19,
					"interpolation":"LINEAR",
					"output":21
				},
				{
					"input":22,
					"interpolation":"STEP",
					"output":23
				},
				{
					"input":19,
					"interpolation":"LINEAR",
					"output":24
				},
				{
					"input":19,
					"interpolation":"LINEAR",
					"output":25
				},
				{
					"input":22,
					"interpolation":"STEP",
					"output":26
				},
				{
					"input":19,
					"interpolation":"LINEAR",
					"output":27
				},
				{
					"input":19,
					"interpolation":"LINEAR",
					"output":28
				},
				{
					"input":22,
					"interpolation":"STEP",
					"output":29
				}
			]
		}
	],
	"materials":[
		{
			"doubleSided":true,
			"extensions":{
				"KHR_materials_specular":{
					"specularFactor":0
				},
				"KHR_materials_ior":{
					"ior":1.4500000476837158
				}
			},
			"name":"GRENADE",
			"pbrMetallicRoughness":{
				"baseColorTexture":{
					"index":0
				},
				"metallicFactor":0,
				"roughnessFactor":0.5
			}
		}
	],
	"meshes":[
		{
			"name":"Cube",
			"primitives":[
				{
					"attributes":{
						"POSITION":0,
						"NORMAL":1,
						"TEXCOORD_0":2,
						"JOINTS_0":3,
						"WEIGHTS_0":4
					},
					"indices":5,
					"material":0
				}
			]
		},
		{
			"name":"Cube.001",
			"primitives":[
				{
					"attributes":{
						"POSITION":7,
						"NORMAL":8,
						"TEXCOORD_0":9,
						"JOINTS_0":10,
						"WEIGHTS_0":11
					},
					"indices":12,
					"material":0
				}
			]
		},
		{
			"name":"Cube.002",
			"primitives":[
				{
					"attributes":{
						"POSITION":13,
						"NORMAL":14,
						"TEXCOORD_0":15,
						"JOINTS_0":16,
						"WEIGHTS_0":17
					},
					"indices":18,
					"material":0
				}
			]
		}
	],
	"textures":[
		{
			"sampler":0,
			"source":0
		}
	],
	"images":[
		{
			"mimeType":"image/png",
			"name":"grenade",
			"uri":"grenade.png"
		}
	],
	"skins":[
		{
			"inverseBindMatrices":6,
			"joints":[
				2,
				0,
				1
			],
			"name":"grenade"
		}
	],
	"accessors":[
		{
			"bufferView":0,
			"componentType":5126,
			"count":449,
			"max":[
				1.0042392015457153,
				1.7064642906188965,
				1.0097471475601196
			],
			"min":[
				-1.004043698310852,
				-0.9708658456802368,
				-1.009627342224121
			],
			"type":"VEC3"
		},
		{
			"bufferView":1,
			"componentType":5126,
			"count":449,
			"type":"VEC3"
		},
		{
			"bufferView":2,
			"componentType":5126,
			"count":449,
			"type":"VEC2"
		},
		{
			"bufferView":3,
			"componentType":5121,
			"count":449,
			"type":"VEC4"
		},
		{
			"bufferView":4,
			"componentType":5126,
			"count":449,
			"type":"VEC4"
		},
		{
			"bufferView":5,
			"componentType":5123,
			"count":714,
			"type":"SCALAR"
		},
		{
			"bufferView":6,
			"componentType":5126,
			"count":3,
			"type":"MAT4"
		},
		{
			"bufferView":7,
			"componentType":5126,
			"count":103,
			"max":[
				0.6690900921821594,
				1.7664768695831299,
				0.15559372305870056
			],
			"min":[
				-0.15975290536880493,
				0.8100260496139526,
				-0.973635196685791
			],
			"type":"VEC3"
		},
		{
			"bufferView":8,
			"componentType":5126,
			"count":103,
			"type":"VEC3"
		},
		{
			"bufferView":9,
			"componentType":5126,
			"count":103,
			"type":"VEC2"
		},
		{
			"bufferView":10,
			"componentType":5121,
			"count":103,
			"type":"VEC4"
		},
		{
			"bufferView":11,
			"componentType":5126,
			"count":103,
			"type":"VEC4"
		},
		{
			"bufferView":12,
			"componentType":5123,
			"count":180,
			"type":"SCALAR"
		},
		{
			"bufferView":13,
			"componentType":5126,
			"count":108,
			"max":[
				0.583632230758667,
				1.6725337505340576,
				0.45858174562454224
			],
			"min":[
				-0.07697177678346634,
				1.099655270576477,
				-0.08043762296438217
			],
			"type":"VEC3"
		},
		{
			"bufferView":14,
			"componentType":5126,
			"count":108,
			"type":"VEC3"
		},
		{
			"bufferView":15,
			"componentType":5126,
			"count":108,
			"type":"VEC2"
		},
		{
			"bufferView":16,
			"componentType":5121,
			"count":108,
			"type":"VEC4"
		},
		{
			"bufferView":17,
			"componentType":5126,
			"count":108,
			"type":"VEC4"
		},
		{
			"bufferView":18,
			"componentType":5123,
			"count":216,
			"type":"SCALAR"
		},
		{
			"bufferView":19,
			"componentType":5126,
			"count":34,
			"max":[
				1.375
			],
			"min":[
				0
			],
			"type":"SCALAR"
		},
		{
			"bufferView":20,
			"componentType":5126,
			"count":34,
			"type":"VEC3"
		},
		{
			"bufferView":21,
			"componentType":5126,
			"count":34,
			"type":"VEC4"
		},
		{
			"bufferView":22,
			"componentType":5126,
			"count":2,
			"max":[
				1.375
			],
			"min":[
				0
			],
			"type":"SCALAR"
		},
		{
			"bufferView":23,
			"componentType":5126,
			"count":2,
			"type":"VEC3"
		},
		{
			"bufferView":24,
			"componentType":5126,
			"count":34,
			"type":"VEC3"
		},
		{
			"bufferView":25,
			"componentType":5126,
			"count":34,
			"type":"VEC4"
		},
		{
			"bufferView":26,
			"componentType":5126,
			"count":2,
			"type":"VEC3"
		},
		{
			"bufferView":27,
			"componentType":5126,
			"count":34,
			"type":"VEC3"
		},
		{
			"bufferView":28,
			"componentType":5126,
			"count":34,
			"type":"VEC4"
		},
		{
			"bufferView":29,
			"componentType":5126,
			"count":2,
			"type":"VEC3"
		}
	],
	"bufferViews":[
		{
			"buffer":0,
			"byteLength":5388,
			"byteOffset":0,
			"target":34962
		},
		{
			"buffer":0,
			"byteLength":5388,
			"byteOffset":5388,
			"target":34962
		},
		{
			"buffer":0,
			"byteLength":3592,
			"byteOffset":10776,
			"target":34962
		},
		{
			"buffer":0,
			"byteLength":1796,
			"byteOffset":14368,
			"target":34962
		},
		{
			"buffer":0,
			"byteLength":7184,
			"byteOffset":16164,
			"target":34962
		},
		{
			"buffer":0,
			"byteLength":1428,
			"byteOffset":23348,
			"target":34963
		},
		{
			"buffer":0,
			"byteLength":192,
			"byteOffset":24776
		},
		{
			"buffer":0,
			"byteLength":1236,
			"byteOffset":24968,
			"target":34962
		},
		{
			"buffer":0,
			"byteLength":1236,
			"byteOffset":26204,
			"target":34962
		},
		{
			"buffer":0,
			"byteLength":824,
			"byteOffset":27440,
			"target":34962
		},
		{
			"buffer":0,
			"byteLength":412,
			"byteOffset":28264,
			"target":34962
		},
		{
			"buffer":0,
			"byteLength":1648,
			"byteOffset":28676,
			"target":34962
		},
		{
			"buffer":0,
			"byteLength":360,
			"byteOffset":30324,
			"target":34963
		},
		{
			"buffer":0,
			"byteLength":1296,
			"byteOffset":30684,
			"target":34962
		},
		{
			"buffer":0,
			"byteLength":1296,
			"byteOffset":31980,
			"target":34962
		},
		{
			"buffer":0,
			"byteLength":864,
			"byteOffset":33276,
			"target":34962
		},
		{
			"buffer":0,
			"byteLength":432,
			"byteOffset":34140,
			"target":34962
		},
		{
			"buffer":0,
			"byteLength":1728,
			"byteOffset":34572,
			"target":34962
		},
		{
			"buffer":0,
			"byteLength":432,
			"byteOffset":36300,
			"target":34963
		},
		{
			"buffer":0,
			"byteLength":136,
			"byteOffset":36732
		},
		{
			"buffer":0,
			"byteLength":408,
			"byteOffset":36868
		},
		{
			"buffer":0,
			"byteLength":544,
			"byteOffset":37276
		},
		{
			"buffer":0,
			"byteLength":8,
			"byteOffset":37820
		},
		{
			"buffer":0,
			"byteLength":24,
			"byteOffset":37828
		},
		{
			"buffer":0,
			"byteLength":408,
			"byteOffset":37852
		},
		{
			"buffer":0,
			"byteLength":544,
			"byteOffset":38260
		},
		{
			"buffer":0,
			"byteLength":24,
			"byteOffset":38804
		},
		{
			"buffer":0,
			"byteLength":408,
			"byteOffset":38828
		},
		{
			"buffer":0,
			"byteLength":544,
			"byteOffset":39236
		},
		{
			"buffer":0,
			"byteLength":24,
			"byteOffset":39780
		}
	],
	"samplers":[
		{
			"magFilter":9728,
			"minFilter":9984
		}
	],
	"buffers":[
		{
			"byteLength":39804,
			"uri":"Untitled.bin"
		}
	]
}
