{
	"asset":{
		"generator":"Khronos glTF Blender I/O v4.4.56",
		"version":"2.0"
	},
	"extensionsUsed":[
		"KHR_materials_specular",
		"KHR_materials_ior"
	],
	"scene":0,
	"scenes":[
		{
			"name":"Scene",
			"nodes":[
				6
			]
		}
	],
	"nodes":[
		{
			"name":"muzzle",
			"translation":[
				0.0008740535122342408,
				1.5108399391174316,
				-0.01249692589044571
			]
		},
		{
			"name":"aim",
			"rotation":[
				0.27578204870224,
				-0.27489545941352844,
				0.6447229385375977,
				0.657806396484375
			],
			"scale":[
				1,
				0.9999999403953552,
				1.0000001192092896
			],
			"translation":[
				-0.23908765614032745,
				0.21313002705574036,
				-0.0017088439781218767
			]
		},
		{
			"name":"trigger",
			"rotation":[
				0.20439991354942322,
				0.30393296480178833,
				-0.513768196105957,
				0.7758141756057739
			],
			"scale":[
				1.0000001192092896,
				1,
				1
			],
			"translation":[
				0.2712734043598175,
				0.4178951680660248,
				-0.003517301520332694
			]
		},
		{
			"name":"priklad",
			"rotation":[
				0.01631585881114006,
				-0.008270146325230598,
				-0.9998326897621155,
				0.0001367453660350293
			],
			"scale":[
				1,
				1.000000238418579,
				1.000000238418579
			],
			"translation":[
				-0.028186777606606483,
				-0.5516258478164673,
				0.004569298587739468
			]
		},
		{
			"children":[
				0,
				1,
				2,
				3
			],
			"name":"rifle",
			"translation":[
				2.763990778476e-07,
				-1.6763806343078613e-08,
				1.5053956303745508e-07
			]
		},
		{
			"mesh":0,
			"name":"TRIGGER",
			"skin":0
		},
		{
			"children":[
				5,
				4
			],
			"name":"rifle",
			"rotation":[
				0.002871966455131769,
				-0.0029779612086713314,
				-0.7006494402885437,
				0.7134937047958374
			],
			"translation":[
				-0.783690333366394,
				3.247481346130371,
				1.3282870054244995
			]
		}
	],
	"animations":[
		{
			"channels":[
				{
					"sampler":0,
					"target":{
						"node":4,
						"path":"translation"
					}
				},
				{
					"sampler":1,
					"target":{
						"node":4,
						"path":"rotation"
					}
				},
				{
					"sampler":2,
					"target":{
						"node":4,
						"path":"scale"
					}
				},
				{
					"sampler":3,
					"target":{
						"node":0,
						"path":"translation"
					}
				},
				{
					"sampler":4,
					"target":{
						"node":0,
						"path":"rotation"
					}
				},
				{
					"sampler":5,
					"target":{
						"node":0,
						"path":"scale"
					}
				},
				{
					"sampler":6,
					"target":{
						"node":1,
						"path":"translation"
					}
				},
				{
					"sampler":7,
					"target":{
						"node":1,
						"path":"rotation"
					}
				},
				{
					"sampler":8,
					"target":{
						"node":1,
						"path":"scale"
					}
				},
				{
					"sampler":9,
					"target":{
						"node":2,
						"path":"translation"
					}
				},
				{
					"sampler":10,
					"target":{
						"node":2,
						"path":"rotation"
					}
				},
				{
					"sampler":11,
					"target":{
						"node":2,
						"path":"scale"
					}
				},
				{
					"sampler":12,
					"target":{
						"node":3,
						"path":"translation"
					}
				},
				{
					"sampler":13,
					"target":{
						"node":3,
						"path":"rotation"
					}
				},
				{
					"sampler":14,
					"target":{
						"node":3,
						"path":"scale"
					}
				},
				{
					"sampler":15,
					"target":{
						"node":6,
						"path":"translation"
					}
				},
				{
					"sampler":16,
					"target":{
						"node":6,
						"path":"rotation"
					}
				},
				{
					"sampler":17,
					"target":{
						"node":6,
						"path":"scale"
					}
				}
			],
			"name":"ArmatureAction",
			"samplers":[
				{
					"input":13,
					"interpolation":"LINEAR",
					"output":14
				},
				{
					"input":13,
					"interpolation":"LINEAR",
					"output":15
				},
				{
					"input":16,
					"interpolation":"STEP",
					"output":17
				},
				{
					"input":13,
					"interpolation":"LINEAR",
					"output":18
				},
				{
					"input":13,
					"interpolation":"LINEAR",
					"output":19
				},
				{
					"input":16,
					"interpolation":"STEP",
					"output":20
				},
				{
					"input":16,
					"interpolation":"STEP",
					"output":21
				},
				{
					"input":13,
					"interpolation":"LINEAR",
					"output":22
				},
				{
					"input":16,
					"interpolation":"STEP",
					"output":23
				},
				{
					"input":16,
					"interpolation":"STEP",
					"output":24
				},
				{
					"input":13,
					"interpolation":"LINEAR",
					"output":25
				},
				{
					"input":16,
					"interpolation":"STEP",
					"output":26
				},
				{
					"input":13,
					"interpolation":"LINEAR",
					"output":27
				},
				{
					"input":13,
					"interpolation":"LINEAR",
					"output":28
				},
				{
					"input":16,
					"interpolation":"STEP",
					"output":29
				},
				{
					"input":16,
					"interpolation":"STEP",
					"output":30
				},
				{
					"input":16,
					"interpolation":"STEP",
					"output":31
				},
				{
					"input":16,
					"interpolation":"STEP",
					"output":32
				}
			]
		},
		{
			"channels":[
				{
					"sampler":0,
					"target":{
						"node":5,
						"path":"translation"
					}
				},
				{
					"sampler":1,
					"target":{
						"node":5,
						"path":"rotation"
					}
				},
				{
					"sampler":2,
					"target":{
						"node":5,
						"path":"scale"
					}
				}
			],
			"name":"shoot",
			"samplers":[
				{
					"input":33,
					"interpolation":"STEP",
					"output":34
				},
				{
					"input":33,
					"interpolation":"STEP",
					"output":35
				},
				{
					"input":33,
					"interpolation":"STEP",
					"output":36
				}
			]
		}
	],
	"materials":[
		{
			"doubleSided":true,
			"extensions":{
				"KHR_materials_specular":{
					"specularFactor":0
				},
				"KHR_materials_ior":{
					"ior":1.4500000476837158
				}
			},
			"name":"GUN",
			"pbrMetallicRoughness":{
				"baseColorTexture":{
					"index":0
				},
				"metallicFactor":0,
				"roughnessFactor":0.5
			}
		},
		{
			"doubleSided":true,
			"extensions":{
				"KHR_materials_specular":{
					"specularFactor":0.10000002384185791
				}
			},
			"name":"rifle",
			"pbrMetallicRoughness":{
				"baseColorTexture":{
					"index":1
				},
				"metallicFactor":0.10362694412469864,
				"roughnessFactor":0.5
			}
		}
	],
	"meshes":[
		{
			"name":"Cube.002",
			"primitives":[
				{
					"attributes":{
						"POSITION":0,
						"NORMAL":1,
						"TEXCOORD_0":2,
						"JOINTS_0":3,
						"WEIGHTS_0":4
					},
					"indices":5,
					"material":0
				},
				{
					"attributes":{
						"POSITION":6,
						"NORMAL":7,
						"TEXCOORD_0":8,
						"JOINTS_0":9,
						"WEIGHTS_0":10
					},
					"indices":11,
					"material":1
				}
			]
		}
	],
	"textures":[
		{
			"sampler":0,
			"source":0
		},
		{
			"sampler":0,
			"source":1
		}
	],
	"images":[
		{
			"mimeType":"image/png",
			"name":"gun.png",
			"uri":"gun_png.png"
		},
		{
			"mimeType":"image/png",
			"name":"rifle",
			"uri":"rifle.png"
		}
	],
	"skins":[
		{
			"inverseBindMatrices":12,
			"joints":[
				4,
				0,
				1,
				2,
				3
			],
			"name":"rifle"
		}
	],
	"accessors":[
		{
			"bufferView":0,
			"componentType":5126,
			"count":120,
			"max":[
				-0.23294390738010406,
				2.995109796524048,
				1.3342729806900024
			],
			"min":[
				-0.39222824573516846,
				2.7533082962036133,
				1.2563353776931763
			],
			"type":"VEC3"
		},
		{
			"bufferView":1,
			"componentType":5126,
			"count":120,
			"type":"VEC3"
		},
		{
			"bufferView":2,
			"componentType":5126,
			"count":120,
			"type":"VEC2"
		},
		{
			"bufferView":3,
			"componentType":5121,
			"count":120,
			"type":"VEC4"
		},
		{
			"bufferView":4,
			"componentType":5126,
			"count":120,
			"type":"VEC4"
		},
		{
			"bufferView":5,
			"componentType":5123,
			"count":180,
			"type":"SCALAR"
		},
		{
			"bufferView":6,
			"componentType":5126,
			"count":2019,
			"max":[
				2.600703477859497,
				3.7779321670532227,
				1.5585212707519531
			],
			"min":[
				-2.542490243911743,
				1.897080898284912,
				1.1256047487258911
			],
			"type":"VEC3"
		},
		{
			"bufferView":7,
			"componentType":5126,
			"count":2019,
			"type":"VEC3"
		},
		{
			"bufferView":8,
			"componentType":5126,
			"count":2019,
			"type":"VEC2"
		},
		{
			"bufferView":9,
			"componentType":5121,
			"count":2019,
			"type":"VEC4"
		},
		{
			"bufferView":10,
			"componentType":5126,
			"count":2019,
			"type":"VEC4"
		},
		{
			"bufferView":11,
			"componentType":5123,
			"count":3648,
			"type":"SCALAR"
		},
		{
			"bufferView":12,
			"componentType":5126,
			"count":5,
			"type":"MAT4"
		},
		{
			"bufferView":13,
			"componentType":5126,
			"count":17,
			"max":[
				0.6666666666666666
			],
			"min":[
				0
			],
			"type":"SCALAR"
		},
		{
			"bufferView":14,
			"componentType":5126,
			"count":17,
			"type":"VEC3"
		},
		{
			"bufferView":15,
			"componentType":5126,
			"count":17,
			"type":"VEC4"
		},
		{
			"bufferView":16,
			"componentType":5126,
			"count":2,
			"max":[
				0.6666666666666666
			],
			"min":[
				0
			],
			"type":"SCALAR"
		},
		{
			"bufferView":17,
			"componentType":5126,
			"count":2,
			"type":"VEC3"
		},
		{
			"bufferView":18,
			"componentType":5126,
			"count":17,
			"type":"VEC3"
		},
		{
			"bufferView":19,
			"componentType":5126,
			"count":17,
			"type":"VEC4"
		},
		{
			"bufferView":20,
			"componentType":5126,
			"count":2,
			"type":"VEC3"
		},
		{
			"bufferView":21,
			"componentType":5126,
			"count":2,
			"type":"VEC3"
		},
		{
			"bufferView":22,
			"componentType":5126,
			"count":17,
			"type":"VEC4"
		},
		{
			"bufferView":23,
			"componentType":5126,
			"count":2,
			"type":"VEC3"
		},
		{
			"bufferView":24,
			"componentType":5126,
			"count":2,
			"type":"VEC3"
		},
		{
			"bufferView":25,
			"componentType":5126,
			"count":17,
			"type":"VEC4"
		},
		{
			"bufferView":26,
			"componentType":5126,
			"count":2,
			"type":"VEC3"
		},
		{
			"bufferView":27,
			"componentType":5126,
			"count":17,
			"type":"VEC3"
		},
		{
			"bufferView":28,
			"componentType":5126,
			"count":17,
			"type":"VEC4"
		},
		{
			"bufferView":29,
			"componentType":5126,
			"count":2,
			"type":"VEC3"
		},
		{
			"bufferView":30,
			"componentType":5126,
			"count":2,
			"type":"VEC3"
		},
		{
			"bufferView":31,
			"componentType":5126,
			"count":2,
			"type":"VEC4"
		},
		{
			"bufferView":32,
			"componentType":5126,
			"count":2,
			"type":"VEC3"
		},
		{
			"bufferView":33,
			"componentType":5126,
			"count":2,
			"max":[
				0.7083333333333334
			],
			"min":[
				0
			],
			"type":"SCALAR"
		},
		{
			"bufferView":34,
			"componentType":5126,
			"count":2,
			"type":"VEC3"
		},
		{
			"bufferView":35,
			"componentType":5126,
			"count":2,
			"type":"VEC4"
		},
		{
			"bufferView":36,
			"componentType":5126,
			"count":2,
			"type":"VEC3"
		}
	],
	"bufferViews":[
		{
			"buffer":0,
			"byteLength":1440,
			"byteOffset":0,
			"target":34962
		},
		{
			"buffer":0,
			"byteLength":1440,
			"byteOffset":1440,
			"target":34962
		},
		{
			"buffer":0,
			"byteLength":960,
			"byteOffset":2880,
			"target":34962
		},
		{
			"buffer":0,
			"byteLength":480,
			"byteOffset":3840,
			"target":34962
		},
		{
			"buffer":0,
			"byteLength":1920,
			"byteOffset":4320,
			"target":34962
		},
		{
			"buffer":0,
			"byteLength":360,
			"byteOffset":6240,
			"target":34963
		},
		{
			"buffer":0,
			"byteLength":24228,
			"byteOffset":6600,
			"target":34962
		},
		{
			"buffer":0,
			"byteLength":24228,
			"byteOffset":30828,
			"target":34962
		},
		{
			"buffer":0,
			"byteLength":16152,
			"byteOffset":55056,
			"target":34962
		},
		{
			"buffer":0,
			"byteLength":8076,
			"byteOffset":71208,
			"target":34962
		},
		{
			"buffer":0,
			"byteLength":32304,
			"byteOffset":79284,
			"target":34962
		},
		{
			"buffer":0,
			"byteLength":7296,
			"byteOffset":111588,
			"target":34963
		},
		{
			"buffer":0,
			"byteLength":320,
			"byteOffset":118884
		},
		{
			"buffer":0,
			"byteLength":68,
			"byteOffset":119204
		},
		{
			"buffer":0,
			"byteLength":204,
			"byteOffset":119272
		},
		{
			"buffer":0,
			"byteLength":272,
			"byteOffset":119476
		},
		{
			"buffer":0,
			"byteLength":8,
			"byteOffset":119748
		},
		{
			"buffer":0,
			"byteLength":24,
			"byteOffset":119756
		},
		{
			"buffer":0,
			"byteLength":204,
			"byteOffset":119780
		},
		{
			"buffer":0,
			"byteLength":272,
			"byteOffset":119984
		},
		{
			"buffer":0,
			"byteLength":24,
			"byteOffset":120256
		},
		{
			"buffer":0,
			"byteLength":24,
			"byteOffset":120280
		},
		{
			"buffer":0,
			"byteLength":272,
			"byteOffset":120304
		},
		{
			"buffer":0,
			"byteLength":24,
			"byteOffset":120576
		},
		{
			"buffer":0,
			"byteLength":24,
			"byteOffset":120600
		},
		{
			"buffer":0,
			"byteLength":272,
			"byteOffset":120624
		},
		{
			"buffer":0,
			"byteLength":24,
			"byteOffset":120896
		},
		{
			"buffer":0,
			"byteLength":204,
			"byteOffset":120920
		},
		{
			"buffer":0,
			"byteLength":272,
			"byteOffset":121124
		},
		{
			"buffer":0,
			"byteLength":24,
			"byteOffset":121396
		},
		{
			"buffer":0,
			"byteLength":24,
			"byteOffset":121420
		},
		{
			"buffer":0,
			"byteLength":32,
			"byteOffset":121444
		},
		{
			"buffer":0,
			"byteLength":24,
			"byteOffset":121476
		},
		{
			"buffer":0,
			"byteLength":8,
			"byteOffset":121500
		},
		{
			"buffer":0,
			"byteLength":24,
			"byteOffset":121508
		},
		{
			"buffer":0,
			"byteLength":32,
			"byteOffset":121532
		},
		{
			"buffer":0,
			"byteLength":24,
			"byteOffset":121564
		}
	],
	"samplers":[
		{
			"magFilter":9728,
			"minFilter":9984
		}
	],
	"buffers":[
		{
			"byteLength":121588,
			"uri":"Avtomat.bin"
		}
	]
}
