{
	"asset":{
		"generator":"Khronos glTF Blender I/O v4.4.56",
		"version":"2.0"
	},
	"extensionsUsed":[
		"KHR_materials_specular"
	],
	"scene":0,
	"scenes":[
		{
			"name":"Scene",
			"nodes":[
				0,
				1,
				2,
				3,
				4,
				5
			]
		}
	],
	"nodes":[
		{
			"mesh":0,
			"name":"eagletribune",
			"rotation":[
				1,
				0,
				0,
				0
			],
			"scale":[
				-1.1313121318817139,
				-1.1313121318817139,
				-1.1313121318817139
			],
			"translation":[
				-22.7890682220459,
				2.0745019912719727,
				0.2418634295463562
			]
		},
		{
			"mesh":1,
			"name":"sky",
			"scale":[
				115.6848373413086,
				115.6848373413086,
				115.6848373413086
			]
		},
		{
			"mesh":2,
			"name":"land.008",
			"scale":[
				21.863941192626953,
				21.863941192626953,
				21.863941192626953
			],
			"translation":[
				-43.61511993408203,
				0.45106691122055054,
				43.1434326171875
			]
		},
		{
			"mesh":3,
			"name":"pakmantribune",
			"rotation":[
				1,
				0,
				0,
				0
			],
			"scale":[
				-1.1313121318817139,
				-1.1313121318817139,
				-1.1313121318817139
			],
			"translation":[
				-22.7890682220459,
				2.0745019912719727,
				0.2418634295463562
			]
		},
		{
			"mesh":4,
			"name":"purplehattribune",
			"rotation":[
				1,
				0,
				0,
				0
			],
			"scale":[
				-1.1313121318817139,
				-1.1313121318817139,
				-1.1313121318817139
			],
			"translation":[
				-22.7890682220459,
				2.0745019912719727,
				0.2418634295463562
			]
		},
		{
			"mesh":5,
			"name":"groundin",
			"rotation":[
				0,
				-0.32762426137924194,
				0,
				0.9448081254959106
			],
			"scale":[
				4.705155372619629,
				1,
				1
			],
			"translation":[
				-9.173493385314941,
				0.8534660339355469,
				-19.88146209716797
			]
		}
	],
	"materials":[
		{
			"doubleSided":true,
			"extensions":{
				"KHR_materials_specular":{
					"specularFactor":0
				}
			},
			"name":"land",
			"pbrMetallicRoughness":{
				"baseColorTexture":{
					"index":0
				},
				"metallicFactor":0,
				"roughnessFactor":0.5
			}
		},
		{
			"doubleSided":true,
			"name":"sky",
			"pbrMetallicRoughness":{
				"baseColorTexture":{
					"index":1
				},
				"metallicFactor":0,
				"roughnessFactor":0.5
			}
		}
	],
	"meshes":[
		{
			"name":"Cube.009",
			"primitives":[
				{
					"attributes":{
						"POSITION":0,
						"NORMAL":1,
						"TEXCOORD_0":2
					},
					"indices":3,
					"material":0
				}
			]
		},
		{
			"name":"Sphere",
			"primitives":[
				{
					"attributes":{
						"POSITION":4,
						"NORMAL":5,
						"TEXCOORD_0":6
					},
					"indices":7,
					"material":1
				}
			]
		},
		{
			"name":"Plane.009",
			"primitives":[
				{
					"attributes":{
						"POSITION":8,
						"NORMAL":9,
						"TEXCOORD_0":10
					},
					"indices":11,
					"material":0
				}
			]
		},
		{
			"name":"Cube.085",
			"primitives":[
				{
					"attributes":{
						"POSITION":12,
						"NORMAL":13,
						"TEXCOORD_0":14
					},
					"indices":15,
					"material":0
				}
			]
		},
		{
			"name":"Cube.086",
			"primitives":[
				{
					"attributes":{
						"POSITION":16,
						"NORMAL":17,
						"TEXCOORD_0":18
					},
					"indices":19,
					"material":0
				}
			]
		},
		{
			"name":"Plane.011",
			"primitives":[
				{
					"attributes":{
						"POSITION":20,
						"NORMAL":21,
						"TEXCOORD_0":22
					},
					"indices":23,
					"material":0
				}
			]
		}
	],
	"textures":[
		{
			"sampler":0,
			"source":0
		},
		{
			"sampler":1,
			"source":1
		}
	],
	"images":[
		{
			"mimeType":"image/png",
			"name":"land",
			"uri":"land.png"
		},
		{
			"mimeType":"image/png",
			"name":"Bumpy_Sky-Sunset_03-1024x512",
			"uri":"Bumpy_Sky-Sunset_03-1024x512.png"
		}
	],
	"accessors":[
		{
			"bufferView":0,
			"componentType":5126,
			"count":1516,
			"max":[
				-31.356447219848633,
				11.048787117004395,
				15.529648780822754
			],
			"min":[
				-47.300865173339844,
				-3.30373215675354,
				-14.299083709716797
			],
			"type":"VEC3"
		},
		{
			"bufferView":1,
			"componentType":5126,
			"count":1516,
			"type":"VEC3"
		},
		{
			"bufferView":2,
			"componentType":5126,
			"count":1516,
			"type":"VEC2"
		},
		{
			"bufferView":3,
			"componentType":5123,
			"count":2316,
			"type":"SCALAR"
		},
		{
			"bufferView":4,
			"componentType":5126,
			"count":559,
			"max":[
				0.9999997019767761,
				1,
				0.9999993443489075
			],
			"min":[
				-0.9999990463256836,
				-1,
				-1
			],
			"type":"VEC3"
		},
		{
			"bufferView":5,
			"componentType":5126,
			"count":559,
			"type":"VEC3"
		},
		{
			"bufferView":6,
			"componentType":5126,
			"count":559,
			"type":"VEC2"
		},
		{
			"bufferView":7,
			"componentType":5123,
			"count":2880,
			"type":"SCALAR"
		},
		{
			"bufferView":8,
			"componentType":5126,
			"count":2601,
			"max":[
				4.969280242919922,
				0.009765872731804848,
				1
			],
			"min":[
				-1,
				-0.035855844616889954,
				-4.96521520614624
			],
			"type":"VEC3"
		},
		{
			"bufferView":9,
			"componentType":5126,
			"count":2601,
			"type":"VEC3"
		},
		{
			"bufferView":10,
			"componentType":5126,
			"count":2601,
			"type":"VEC2"
		},
		{
			"bufferView":11,
			"componentType":5123,
			"count":13824,
			"type":"SCALAR"
		},
		{
			"bufferView":12,
			"componentType":5126,
			"count":1516,
			"max":[
				-5.82589054107666,
				11.048787117004395,
				28.350723266601562
			],
			"min":[
				-35.654624938964844,
				-3.30373215675354,
				12.436612129211426
			],
			"type":"VEC3"
		},
		{
			"bufferView":13,
			"componentType":5126,
			"count":1516,
			"type":"VEC3"
		},
		{
			"bufferView":14,
			"componentType":5126,
			"count":1516,
			"type":"VEC2"
		},
		{
			"bufferView":15,
			"componentType":5123,
			"count":2316,
			"type":"SCALAR"
		},
		{
			"bufferView":16,
			"componentType":5126,
			"count":1516,
			"max":[
				9.132424354553223,
				11.048788070678711,
				15.055560111999512
			],
			"min":[
				-6.824273586273193,
				-3.303732395172119,
				-14.773174285888672
			],
			"type":"VEC3"
		},
		{
			"bufferView":17,
			"componentType":5126,
			"count":1516,
			"type":"VEC3"
		},
		{
			"bufferView":18,
			"componentType":5126,
			"count":1516,
			"type":"VEC2"
		},
		{
			"bufferView":19,
			"componentType":5123,
			"count":2316,
			"type":"SCALAR"
		},
		{
			"bufferView":20,
			"componentType":5126,
			"count":2660,
			"max":[
				3.6003456115722656,
				19.672740936279297,
				1.0735142230987549
			],
			"min":[
				-3.0419907569885254,
				-2.5165162086486816,
				-26.084035873413086
			],
			"type":"VEC3"
		},
		{
			"bufferView":21,
			"componentType":5126,
			"count":2660,
			"type":"VEC3"
		},
		{
			"bufferView":22,
			"componentType":5126,
			"count":2660,
			"type":"VEC2"
		},
		{
			"bufferView":23,
			"componentType":5123,
			"count":4032,
			"type":"SCALAR"
		}
	],
	"bufferViews":[
		{
			"buffer":0,
			"byteLength":18192,
			"byteOffset":0,
			"target":34962
		},
		{
			"buffer":0,
			"byteLength":18192,
			"byteOffset":18192,
			"target":34962
		},
		{
			"buffer":0,
			"byteLength":12128,
			"byteOffset":36384,
			"target":34962
		},
		{
			"buffer":0,
			"byteLength":4632,
			"byteOffset":48512,
			"target":34963
		},
		{
			"buffer":0,
			"byteLength":6708,
			"byteOffset":53144,
			"target":34962
		},
		{
			"buffer":0,
			"byteLength":6708,
			"byteOffset":59852,
			"target":34962
		},
		{
			"buffer":0,
			"byteLength":4472,
			"byteOffset":66560,
			"target":34962
		},
		{
			"buffer":0,
			"byteLength":5760,
			"byteOffset":71032,
			"target":34963
		},
		{
			"buffer":0,
			"byteLength":31212,
			"byteOffset":76792,
			"target":34962
		},
		{
			"buffer":0,
			"byteLength":31212,
			"byteOffset":108004,
			"target":34962
		},
		{
			"buffer":0,
			"byteLength":20808,
			"byteOffset":139216,
			"target":34962
		},
		{
			"buffer":0,
			"byteLength":27648,
			"byteOffset":160024,
			"target":34963
		},
		{
			"buffer":0,
			"byteLength":18192,
			"byteOffset":187672,
			"target":34962
		},
		{
			"buffer":0,
			"byteLength":18192,
			"byteOffset":205864,
			"target":34962
		},
		{
			"buffer":0,
			"byteLength":12128,
			"byteOffset":224056,
			"target":34962
		},
		{
			"buffer":0,
			"byteLength":4632,
			"byteOffset":236184,
			"target":34963
		},
		{
			"buffer":0,
			"byteLength":18192,
			"byteOffset":240816,
			"target":34962
		},
		{
			"buffer":0,
			"byteLength":18192,
			"byteOffset":259008,
			"target":34962
		},
		{
			"buffer":0,
			"byteLength":12128,
			"byteOffset":277200,
			"target":34962
		},
		{
			"buffer":0,
			"byteLength":4632,
			"byteOffset":289328,
			"target":34963
		},
		{
			"buffer":0,
			"byteLength":31920,
			"byteOffset":293960,
			"target":34962
		},
		{
			"buffer":0,
			"byteLength":31920,
			"byteOffset":325880,
			"target":34962
		},
		{
			"buffer":0,
			"byteLength":21280,
			"byteOffset":357800,
			"target":34962
		},
		{
			"buffer":0,
			"byteLength":8064,
			"byteOffset":379080,
			"target":34963
		}
	],
	"samplers":[
		{
			"magFilter":9728,
			"minFilter":9984
		},
		{
			"magFilter":9729,
			"minFilter":9987
		}
	],
	"buffers":[
		{
			"byteLength":387144,
			"uri":"Arena.bin"
		}
	]
}
