{"asset":{"version":"2.0","generator":"Blockbench 5.0.1 glTF exporter"},"scenes":[{"nodes":[1],"name":"blockbench_export"}],"scene":0,"nodes":[{"mesh":1},{"translation":[0,0.625,0],"name":"sphere","mesh":0,"children":[0]}],"bufferViews":[{"buffer":0,"byteOffset":0,"byteLength":2976,"target":34962,"byteStride":12},{"buffer":0,"byteOffset":2976,"byteLength":2976,"target":34962,"byteStride":12},{"buffer":0,"byteOffset":5952,"byteLength":1984,"target":34962,"byteStride":8},{"buffer":0,"byteOffset":7936,"byteLength":660,"target":34963},{"buffer":0,"byteOffset":8596,"byteLength":708,"target":34962,"byteStride":12}],"buffers":[{"byteLength":9304,"uri":"data:application/octet-stream;base64,"}],"accessors":[{"bufferView":0,"componentType":5126,"count":248,"max":[0.625,0.4375,0.625],"min":[-0.625,-0.625,-0.625],"type":"VEC3"},{"bufferView":1,"componentType":5126,"count":248,"max":[0.9527642726898193,1,1],"min":[-0.9527642726898193,-0.9527642726898193,-1],"type":"VEC3"},{"bufferView":2,"componentType":5126,"count":248,"max":[0.84375,0.796875],"min":[0,0],"type":"VEC2"},{"bufferView":3,"componentType":5123,"count":330,"max":[247],"min":[0],"type":"SCALAR"},{"bufferView":4,"componentType":5126,"count":59,"max":[0.625,0.4375,0.625],"min":[-0.625,-0.625,-0.625],"type":"VEC3"}],"materials":[{"pbrMetallicRoughness":{"metallicFactor":0,"roughnessFactor":1,"baseColorTexture":{"index":0}},"alphaMode":"MASK","alphaCutoff":0.05,"doubleSided":true},{"pbrMetallicRoughness":{"metallicFactor":0,"roughnessFactor":1}}],"textures":[{"sampler":0,"source":0,"name":"stand_in_soup.png"}],"samplers":[{"magFilter":9728,"minFilter":9728,"wrapS":33071,"wrapT":33071}],"images":[{"mimeType":"image/png","uri":"data:image/png;base64,"}],"meshes":[{"primitives":[{"mode":4,"attributes":{"POSITION":0,"NORMAL":1,"TEXCOORD_0":2},"indices":3,"material":0}]},{"primitives":[{"mode":0,"attributes":{"POSITION":4},"material":1}]}]}