{"asset":{"version":"2.0","generator":"Blockbench 5.0.1 glTF exporter"},"scenes":[{"nodes":[1],"name":"blockbench_export"}],"scene":0,"nodes":[{"mesh":1},{"translation":[0,0.625,0],"name":"Flash","mesh":0,"children":[0]}],"bufferViews":[{"buffer":0,"byteOffset":0,"byteLength":5400,"target":34962,"byteStride":12},{"buffer":0,"byteOffset":5400,"byteLength":5400,"target":34962,"byteStride":12},{"buffer":0,"byteOffset":10800,"byteLength":3600,"target":34962,"byteStride":8},{"buffer":0,"byteOffset":14400,"byteLength":1044,"target":34963},{"buffer":0,"byteOffset":15444,"byteLength":1596,"target":34962,"byteStride":12}],"buffers":[{"byteLength":17040,"uri":"data:application/octet-stream;base64,"}],"accessors":[{"bufferView":0,"componentType":5126,"count":450,"max":[0.5571531057357788,0.4375,0.6091956496238708],"min":[-0.6310056447982788,-0.6554574966430664,-0.657346248626709],"type":"VEC3"},{"bufferView":1,"componentType":5126,"count":450,"max":[0.986393928527832,0.9941696524620056,0.986393928527832],"min":[-0.986393928527832,-1,-0.9865582585334778],"type":"VEC3"},{"bufferView":2,"componentType":5126,"count":450,"max":[0.96875,0.953125],"min":[0,0],"type":"VEC2"},{"bufferView":3,"componentType":5123,"count":522,"max":[449],"min":[0],"type":"SCALAR"},{"bufferView":4,"componentType":5126,"count":133,"max":[0.5571531057357788,0.4375,0.6091956496238708],"min":[-0.6310056447982788,-0.6554574966430664,-0.657346248626709],"type":"VEC3"}],"materials":[{"pbrMetallicRoughness":{"metallicFactor":0,"roughnessFactor":1,"baseColorTexture":{"index":0}},"alphaMode":"MASK","alphaCutoff":0.05,"doubleSided":true},{"pbrMetallicRoughness":{"metallicFactor":0,"roughnessFactor":1}}],"textures":[{"sampler":0,"source":0,"name":"HitFlashHS.png"}],"samplers":[{"magFilter":9728,"minFilter":9728,"wrapS":33071,"wrapT":33071}],"images":[{"mimeType":"image/png","uri":"data:image/png;base64,"}],"meshes":[{"primitives":[{"mode":4,"attributes":{"POSITION":0,"NORMAL":1,"TEXCOORD_0":2},"indices":3,"material":0}]},{"primitives":[{"mode":0,"attributes":{"POSITION":4},"material":1}]}]}