{"asset":{"version":"2.0","generator":"Blockbench 4.12.6 glTF exporter"},"scenes":[{"nodes":[1],"name":"blockbench_export"}],"scene":0,"nodes":[{"rotation":[2.8578186011614265e-17,0.7071067811865475,-0.7071067811865476,5.801741961193506e-17],"translation":[0,0.5,-0.0625],"name":"cone","mesh":0},{"children":[0]}],"bufferViews":[{"buffer":0,"byteOffset":0,"byteLength":864,"target":34962,"byteStride":12},{"buffer":0,"byteOffset":864,"byteLength":864,"target":34962,"byteStride":12},{"buffer":0,"byteOffset":1728,"byteLength":576,"target":34962,"byteStride":8},{"buffer":0,"byteOffset":2304,"byteLength":144,"target":34963}],"buffers":[{"byteLength":2448,"uri":"data:application/octet-stream;base64,"}],"accessors":[{"bufferView":0,"componentType":5126,"count":72,"max":[1.15625,3.3125,1.125],"min":[-1.15625,-2.5,-1],"type":"VEC3"},{"bufferView":1,"componentType":5126,"count":72,"max":[0.964660108089447,0.2811674177646637,0.9596975445747375],"min":[-0.964660108089447,-0.6175737977027893,-0.9788167476654053],"type":"VEC3"},{"bufferView":2,"componentType":5126,"count":72,"max":[0.526459276676178,0.5776093602180481],"min":[0.0027604526840150356,0],"type":"VEC2"},{"bufferView":3,"componentType":5123,"count":72,"max":[71],"min":[0],"type":"SCALAR"}],"materials":[{"pbrMetallicRoughness":{"metallicFactor":0,"roughnessFactor":1,"baseColorTexture":{"index":0}},"alphaMode":"MASK","alphaCutoff":0.05,"doubleSided":true}],"textures":[{"sampler":0,"source":0,"name":"mock_muzzle_flash"}],"samplers":[{"magFilter":9728,"minFilter":9728,"wrapS":33071,"wrapT":33071}],"images":[{"mimeType":"image/png","uri":"data:image/png;base64,"}],"meshes":[{"primitives":[{"mode":4,"attributes":{"POSITION":0,"NORMAL":1,"TEXCOORD_0":2},"indices":3,"material":0}]}]}